<?xml version="1.0" encoding="UTF-8" standalone="no"?>
<!DOCTYPE svg PUBLIC "-//W3C//DTD SVG 1.1//EN"
 "http://www.w3.org/Graphics/SVG/1.1/DTD/svg11.dtd">
<!-- Generated by graphviz version 2.38.0 (20140413.2041)
 -->
<!-- Title: snakemake_dag Pages: 1 -->
<svg width="318pt" height="332pt"
 viewBox="0.00 0.00 317.92 332.00" xmlns="http://www.w3.org/2000/svg" xmlns:xlink="http://www.w3.org/1999/xlink">
<g id="graph0" class="graph" transform="scale(1 1) rotate(0) translate(4 328)">
<title>snakemake_dag</title>
<polygon fill="white" stroke="none" points="-4,4 -4,-328 313.921,-328 313.921,4 -4,4"/>
<!-- 0 -->
<g id="node1" class="node"><title>0</title>
<path fill="none" stroke="#d8bc56" stroke-width="2" d="M169.96,-36C169.96,-36 139.96,-36 139.96,-36 133.96,-36 127.96,-30 127.96,-24 127.96,-24 127.96,-12 127.96,-12 127.96,-6 133.96,-0 139.96,-0 139.96,-0 169.96,-0 169.96,-0 175.96,-0 181.96,-6 181.96,-12 181.96,-12 181.96,-24 181.96,-24 181.96,-30 175.96,-36 169.96,-36"/>
<text text-anchor="middle" x="154.96" y="-15" font-family="sans" font-size="10.00">all</text>
</g>
<!-- 1 -->
<g id="node2" class="node"><title>1</title>
<path fill="none" stroke="#d85656" stroke-width="2" d="M127.543,-108C127.543,-108 80.3782,-108 80.3782,-108 74.3782,-108 68.3782,-102 68.3782,-96 68.3782,-96 68.3782,-84 68.3782,-84 68.3782,-78 74.3782,-72 80.3782,-72 80.3782,-72 127.543,-72 127.543,-72 133.543,-72 139.543,-78 139.543,-84 139.543,-84 139.543,-96 139.543,-96 139.543,-102 133.543,-108 127.543,-108"/>
<text text-anchor="middle" x="103.96" y="-87" font-family="sans" font-size="10.00">call_variants</text>
</g>
<!-- 1&#45;&gt;0 -->
<g id="edge1" class="edge"><title>1&#45;&gt;0</title>
<path fill="none" stroke="grey" stroke-width="2" d="M116.567,-71.6966C122.558,-63.4741 129.837,-53.4832 136.44,-44.4207"/>
<polygon fill="grey" stroke="grey" stroke-width="2" points="139.439,-46.2477 142.499,-36.1043 133.781,-42.1257 139.439,-46.2477"/>
</g>
<!-- 2 -->
<g id="node3" class="node"><title>2</title>
<path fill="none" stroke="#d85656" stroke-width="2" d="M229.543,-108C229.543,-108 182.378,-108 182.378,-108 176.378,-108 170.378,-102 170.378,-96 170.378,-96 170.378,-84 170.378,-84 170.378,-78 176.378,-72 182.378,-72 182.378,-72 229.543,-72 229.543,-72 235.543,-72 241.543,-78 241.543,-84 241.543,-84 241.543,-96 241.543,-96 241.543,-102 235.543,-108 229.543,-108"/>
<text text-anchor="middle" x="205.96" y="-87" font-family="sans" font-size="10.00">call_variants</text>
</g>
<!-- 2&#45;&gt;0 -->
<g id="edge2" class="edge"><title>2&#45;&gt;0</title>
<path fill="none" stroke="grey" stroke-width="2" d="M193.354,-71.6966C187.363,-63.4741 180.084,-53.4832 173.481,-44.4207"/>
<polygon fill="grey" stroke="grey" stroke-width="2" points="176.14,-42.1257 167.422,-36.1043 170.482,-46.2477 176.14,-42.1257"/>
</g>
<!-- 3 -->
<g id="node4" class="node"><title>3</title>
<path fill="none" stroke="#88d856" stroke-width="2" d="M171.598,-324C171.598,-324 138.323,-324 138.323,-324 132.323,-324 126.323,-318 126.323,-312 126.323,-312 126.323,-300 126.323,-300 126.323,-294 132.323,-288 138.323,-288 138.323,-288 171.598,-288 171.598,-288 177.598,-288 183.598,-294 183.598,-300 183.598,-300 183.598,-312 183.598,-312 183.598,-318 177.598,-324 171.598,-324"/>
<text text-anchor="middle" x="154.96" y="-303" font-family="sans" font-size="10.00">index_ref</text>
</g>
<!-- 3&#45;&gt;1 -->
<g id="edge3" class="edge"><title>3&#45;&gt;1</title>
<path fill="none" stroke="grey" stroke-width="2" d="M150.873,-287.849C142.033,-250.753 121.074,-162.81 110.42,-118.103"/>
<polygon fill="grey" stroke="grey" stroke-width="2" points="113.79,-117.149 108.067,-108.232 106.981,-118.771 113.79,-117.149"/>
</g>
<!-- 3&#45;&gt;2 -->
<g id="edge6" class="edge"><title>3&#45;&gt;2</title>
<path fill="none" stroke="grey" stroke-width="2" d="M159.048,-287.849C167.888,-250.753 188.847,-162.81 199.501,-118.103"/>
<polygon fill="grey" stroke="grey" stroke-width="2" points="202.94,-118.771 201.854,-108.232 196.131,-117.149 202.94,-118.771"/>
</g>
<!-- 4 -->
<g id="node5" class="node"><title>4</title>
<path fill="none" stroke="#56d88a" stroke-width="2" d="M95.557,-252C95.557,-252 28.3639,-252 28.3639,-252 22.3639,-252 16.3639,-246 16.3639,-240 16.3639,-240 16.3639,-228 16.3639,-228 16.3639,-222 22.3639,-216 28.3639,-216 28.3639,-216 95.557,-216 95.557,-216 101.557,-216 107.557,-222 107.557,-228 107.557,-228 107.557,-240 107.557,-240 107.557,-246 101.557,-252 95.557,-252"/>
<text text-anchor="middle" x="61.9604" y="-236" font-family="sans" font-size="10.00">align_fastqs</text>
<text text-anchor="middle" x="61.9604" y="-226" font-family="sans" font-size="10.00">sample: PatientA</text>
</g>
<!-- 3&#45;&gt;4 -->
<g id="edge9" class="edge"><title>3&#45;&gt;4</title>
<path fill="none" stroke="grey" stroke-width="2" d="M131.972,-287.697C120.147,-278.796 105.568,-267.823 92.7818,-258.199"/>
<polygon fill="grey" stroke="grey" stroke-width="2" points="94.7793,-255.322 84.6848,-252.104 90.5697,-260.915 94.7793,-255.322"/>
</g>
<!-- 6 -->
<g id="node7" class="node"><title>6</title>
<path fill="none" stroke="#56d88a" stroke-width="2" d="M281.557,-252C281.557,-252 214.364,-252 214.364,-252 208.364,-252 202.364,-246 202.364,-240 202.364,-240 202.364,-228 202.364,-228 202.364,-222 208.364,-216 214.364,-216 214.364,-216 281.557,-216 281.557,-216 287.557,-216 293.557,-222 293.557,-228 293.557,-228 293.557,-240 293.557,-240 293.557,-246 287.557,-252 281.557,-252"/>
<text text-anchor="middle" x="247.96" y="-236" font-family="sans" font-size="10.00">align_fastqs</text>
<text text-anchor="middle" x="247.96" y="-226" font-family="sans" font-size="10.00">sample: PatientB</text>
</g>
<!-- 3&#45;&gt;6 -->
<g id="edge11" class="edge"><title>3&#45;&gt;6</title>
<path fill="none" stroke="grey" stroke-width="2" d="M177.949,-287.697C189.774,-278.796 204.352,-267.823 217.139,-258.199"/>
<polygon fill="grey" stroke="grey" stroke-width="2" points="219.351,-260.915 225.236,-252.104 215.142,-255.322 219.351,-260.915"/>
</g>
<!-- 4&#45;&gt;1 -->
<g id="edge4" class="edge"><title>4&#45;&gt;1</title>
<path fill="none" stroke="grey" stroke-width="2" d="M67.6322,-215.864C71.0155,-205.509 75.3428,-192.03 78.9604,-180 85.2195,-159.186 91.8524,-135.488 96.7121,-117.781"/>
<polygon fill="grey" stroke="grey" stroke-width="2" points="100.094,-118.684 99.3523,-108.116 93.341,-116.84 100.094,-118.684"/>
</g>
<!-- 5 -->
<g id="node6" class="node"><title>5</title>
<path fill="none" stroke="#56c1d8" stroke-width="2" d="M57.8814,-180C57.8814,-180 12.0395,-180 12.0395,-180 6.03951,-180 0.0395061,-174 0.0395061,-168 0.0395061,-168 0.0395061,-156 0.0395061,-156 0.0395061,-150 6.03951,-144 12.0395,-144 12.0395,-144 57.8814,-144 57.8814,-144 63.8814,-144 69.8814,-150 69.8814,-156 69.8814,-156 69.8814,-168 69.8814,-168 69.8814,-174 63.8814,-180 57.8814,-180"/>
<text text-anchor="middle" x="34.9604" y="-159" font-family="sans" font-size="10.00">index_bams</text>
</g>
<!-- 4&#45;&gt;5 -->
<g id="edge10" class="edge"><title>4&#45;&gt;5</title>
<path fill="none" stroke="grey" stroke-width="2" d="M55.2863,-215.697C52.2455,-207.813 48.5778,-198.304 45.1998,-189.546"/>
<polygon fill="grey" stroke="grey" stroke-width="2" points="48.4221,-188.175 41.5578,-180.104 41.8911,-190.694 48.4221,-188.175"/>
</g>
<!-- 5&#45;&gt;1 -->
<g id="edge5" class="edge"><title>5&#45;&gt;1</title>
<path fill="none" stroke="grey" stroke-width="2" d="M52.0166,-143.697C60.4559,-135.135 70.785,-124.656 80.0032,-115.304"/>
<polygon fill="grey" stroke="grey" stroke-width="2" points="82.573,-117.683 87.1005,-108.104 77.5878,-112.769 82.573,-117.683"/>
</g>
<!-- 6&#45;&gt;2 -->
<g id="edge7" class="edge"><title>6&#45;&gt;2</title>
<path fill="none" stroke="grey" stroke-width="2" d="M242.289,-215.864C238.905,-205.509 234.578,-192.03 230.96,-180 224.701,-159.186 218.069,-135.488 213.209,-117.781"/>
<polygon fill="grey" stroke="grey" stroke-width="2" points="216.58,-116.84 210.569,-108.116 209.827,-118.684 216.58,-116.84"/>
</g>
<!-- 7 -->
<g id="node8" class="node"><title>7</title>
<path fill="none" stroke="#56c1d8" stroke-width="2" d="M297.881,-180C297.881,-180 252.04,-180 252.04,-180 246.04,-180 240.04,-174 240.04,-168 240.04,-168 240.04,-156 240.04,-156 240.04,-150 246.04,-144 252.04,-144 252.04,-144 297.881,-144 297.881,-144 303.881,-144 309.881,-150 309.881,-156 309.881,-156 309.881,-168 309.881,-168 309.881,-174 303.881,-180 297.881,-180"/>
<text text-anchor="middle" x="274.96" y="-159" font-family="sans" font-size="10.00">index_bams</text>
</g>
<!-- 6&#45;&gt;7 -->
<g id="edge12" class="edge"><title>6&#45;&gt;7</title>
<path fill="none" stroke="grey" stroke-width="2" d="M254.635,-215.697C257.675,-207.813 261.343,-198.304 264.721,-189.546"/>
<polygon fill="grey" stroke="grey" stroke-width="2" points="268.03,-190.694 268.363,-180.104 261.499,-188.175 268.03,-190.694"/>
</g>
<!-- 7&#45;&gt;2 -->
<g id="edge8" class="edge"><title>7&#45;&gt;2</title>
<path fill="none" stroke="grey" stroke-width="2" d="M257.904,-143.697C249.465,-135.135 239.136,-124.656 229.918,-115.304"/>
<polygon fill="grey" stroke="grey" stroke-width="2" points="232.333,-112.769 222.82,-108.104 227.348,-117.683 232.333,-112.769"/>
</g>
</g>
</svg>
